<svg width="25" height="25" viewBox="0 0 25 25" fill="none" xmlns="http://www.w3.org/2000/svg">
<path fill-rule="evenodd" clip-rule="evenodd" d="M12.9636 15.4597C14.5786 15.4597 15.8879 14.1504 15.8879 12.5353C15.8879 10.9203 14.5786 9.61103 12.9636 9.61103C11.3485 9.61103 10.0393 10.9203 10.0393 12.5353C10.0393 14.1504 11.3485 15.4597 12.9636 15.4597ZM12.9636 14.0197C12.1438 14.0197 11.4793 13.3551 11.4793 12.5353C11.4793 11.7156 12.1438 11.051 12.9636 11.051C13.7833 11.051 14.4479 11.7156 14.4479 12.5353C14.4479 13.3551 13.7833 14.0197 12.9636 14.0197Z" fill="white"/>
<path d="M18.7302 13.982C19.5292 13.982 20.1769 13.3343 20.1769 12.5353C20.1769 11.7364 19.5292 11.0887 18.7302 11.0887C17.9313 11.0887 17.2836 11.7364 17.2836 12.5353C17.2836 13.3343 17.9313 13.982 18.7302 13.982Z" fill="white"/>
<path d="M8.64117 12.5353C8.64117 13.3343 7.99349 13.982 7.19453 13.982C6.39557 13.982 5.74789 13.3343 5.74789 12.5353C5.74789 11.7364 6.39557 11.0887 7.19453 11.0887C7.99349 11.0887 8.64117 11.7364 8.64117 12.5353Z" fill="white"/>
<path fill-rule="evenodd" clip-rule="evenodd" d="M2.16357 5.3465H23.7636V19.7242H2.16357V5.3465ZM3.60357 6.7865V18.2842H22.3236V6.7865H3.60357Z" fill="white"/>
</svg>
