<svg width="127" height="33" viewBox="0 0 127 33" fill="none" xmlns="http://www.w3.org/2000/svg">
<path d="M23.1774 0.914062C10.6481 0.914062 0.492188 7.41102 0.492188 15.4262C0.492188 23.4414 10.6481 30.5676 23.1774 30.5676C35.7067 30.5676 45.8623 23.4408 45.8623 15.4262C45.8623 7.41159 35.7061 0.914062 23.1774 0.914062Z" fill="#00BCFF"/>
<path d="M15.7977 10.9412C15.7864 10.9633 15.5647 11.1926 15.7085 11.377C16.059 11.8251 17.1427 12.082 18.2385 11.8361C18.8909 11.6898 19.727 11.0244 20.5372 10.3817C21.3105 9.67935 22.1977 9.11365 23.1609 8.70888C23.7761 8.48359 24.4483 8.46601 25.0745 8.65883C25.7103 8.89505 26.3005 9.23942 26.8189 9.67672C28.3397 10.8202 34.4551 16.1583 35.5121 17.0807C38.7591 15.7304 42.1208 14.6743 45.5568 13.9253C45.1099 11.1854 43.4619 8.57334 40.9336 6.52084C37.4096 8.00091 32.8159 8.88711 28.6051 6.83103C27.1743 6.18335 25.6273 5.83158 24.0572 5.79688C20.7164 5.87459 19.2691 7.3202 17.7376 8.85066L15.7977 10.9412Z" fill="white"/>
<path d="M35.262 17.6596C35.1898 17.5952 28.0714 11.3663 26.4583 10.1541C25.8964 9.65422 25.2034 9.32519 24.4608 9.20572C24.1412 9.18026 23.8195 9.21119 23.5105 9.2971C22.5581 9.65578 21.677 10.1808 20.9083 10.8477C20.0069 11.5661 19.1566 12.2423 18.3671 12.4192C17.4131 12.6152 16.4205 12.466 15.5662 11.9984C15.3662 11.876 15.205 11.6994 15.1014 11.4891C15.0443 11.3279 15.0365 11.1534 15.0789 10.9877C15.1213 10.8221 15.212 10.6728 15.3395 10.5589L17.3041 8.43396C17.5328 8.20631 17.7624 7.97797 17.9985 7.75371C17.3925 7.84478 16.794 7.97956 16.2075 8.15699C15.5321 8.38132 14.8293 8.5124 14.1185 8.5466C13.4021 8.47409 12.6902 8.36282 11.986 8.21328C9.88595 7.72052 7.83603 7.03452 5.86241 6.16406C3.06939 8.24321 1.25066 10.796 0.710938 13.6592C1.11223 13.7652 2.1638 14.005 2.43556 14.0653C8.75627 15.4705 10.7246 16.9181 11.0817 17.2206C11.2918 16.9841 11.5527 16.7984 11.8448 16.6774C12.137 16.5564 12.4528 16.5031 12.7685 16.5217C13.0842 16.5403 13.3915 16.6302 13.6675 16.7848C13.9434 16.9393 14.1807 17.1543 14.3615 17.4137C14.7878 17.0691 15.3198 16.8819 15.868 16.8837C16.1759 16.8866 16.4813 16.9401 16.7719 17.042C17.0536 17.1321 17.3128 17.2812 17.5322 17.4795C17.7516 17.6777 17.9261 17.9205 18.0442 18.1917C18.3203 18.0665 18.6203 18.0027 18.9236 18.0046C19.2862 18.0092 19.6441 18.0881 19.975 18.2365C20.4352 18.4522 20.8085 18.8177 21.0339 19.2732C21.2593 19.7287 21.3234 20.2473 21.2157 20.7439C21.2993 20.7349 21.3833 20.7305 21.4674 20.7306C22.1318 20.7317 22.7685 20.9961 23.2382 21.466C23.7078 21.9358 23.972 22.5728 23.9728 23.2371C23.9728 23.6503 23.8697 24.0569 23.6729 24.4202C24.3271 24.82 25.0828 25.0224 25.8492 25.003C26.0404 25.0031 26.2294 24.9637 26.4046 24.8873C26.5798 24.8109 26.7373 24.6992 26.8673 24.5591C26.9303 24.4703 26.996 24.3664 26.9349 24.2914L25.1514 22.3109C25.1514 22.3109 24.858 22.0331 24.9549 21.9261C25.0551 21.8159 25.2366 21.9739 25.3654 22.0813C26.2727 22.839 27.3804 23.9831 27.3804 23.9831C27.3999 23.9955 27.4728 24.1405 27.8825 24.214C28.1275 24.2567 28.3786 24.2495 28.6207 24.193C28.8629 24.1365 29.0912 24.0319 29.292 23.8853C29.4058 23.79 29.5097 23.6837 29.6023 23.5678C29.5961 23.574 29.5891 23.5795 29.5815 23.584C29.7065 23.4112 29.7695 23.2012 29.7602 22.9881C29.751 22.775 29.67 22.5713 29.5305 22.41L27.4485 20.072C27.4485 20.072 27.1506 19.7962 27.2527 19.6865C27.3431 19.5901 27.5344 19.7353 27.6651 19.8436C28.324 20.3949 29.2554 21.3288 30.148 22.2041C30.4456 22.4053 30.7993 22.507 31.1584 22.4946C31.5174 22.4821 31.8632 22.3562 32.1462 22.1348C32.3779 22.0069 32.5696 21.8172 32.7001 21.5869C32.8305 21.3565 32.8946 21.0945 32.8851 20.83C32.8401 20.4992 32.6852 20.1932 32.4454 19.961L29.6023 17.1013C29.6023 17.1013 29.3012 16.8447 29.4078 16.7153C29.495 16.606 29.6888 16.7631 29.8176 16.8701C30.723 17.6282 33.1752 19.8771 33.1752 19.8771C33.4641 20.0636 33.8022 20.1595 34.146 20.1527C34.4898 20.1459 34.8238 20.0365 35.105 19.8387C35.2857 19.733 35.4378 19.5848 35.5482 19.407C35.6586 19.2292 35.7239 19.0271 35.7385 18.8183C35.7469 18.6023 35.7087 18.387 35.6265 18.187C35.5442 17.9871 35.4199 17.8072 35.262 17.6596Z" fill="white"/>
<path d="M21.4673 21.286C21.1333 21.3328 20.8035 21.4059 20.481 21.5045C20.4458 21.4818 20.508 21.3044 20.549 21.2024C20.5919 21.1012 21.1726 19.3535 19.7567 18.747C19.4399 18.577 19.0767 18.5138 18.7211 18.5668C18.3655 18.6198 18.0365 18.7862 17.783 19.0412C17.7238 19.1031 17.6969 19.0979 17.6903 19.0198C17.6818 18.6935 17.5714 18.378 17.3746 18.1177C17.1778 17.8573 16.9043 17.6651 16.5927 17.568C16.1513 17.4322 15.6779 17.4426 15.2429 17.5976C14.8079 17.7527 14.4347 18.0442 14.1787 18.4285C14.1332 18.084 13.9727 17.7648 13.7234 17.5226C13.474 17.2805 13.1503 17.1295 12.8045 17.094C12.4587 17.0585 12.1111 17.1407 11.8178 17.3272C11.5244 17.5137 11.3026 17.7936 11.188 18.1217C11.0734 18.4499 11.0728 18.8071 11.1862 19.1357C11.2997 19.4642 11.5206 19.7449 11.8133 19.9324C12.106 20.1199 12.4534 20.2032 12.7992 20.1689C13.1451 20.1346 13.4694 19.9847 13.7196 19.7434C13.7285 19.7516 13.7319 19.7661 13.7275 19.7955C13.6228 20.2743 13.6939 20.7747 13.9279 21.2054C14.162 21.636 14.5432 21.968 15.0019 22.1406C15.2497 22.2361 15.5182 22.2651 15.7807 22.2246C16.0432 22.1841 16.2904 22.0755 16.4979 21.9097C16.6208 21.8232 16.6407 21.8596 16.6234 21.9754C16.5707 22.3338 16.6377 23.1013 17.7139 23.5371C17.9805 23.6678 18.2821 23.709 18.574 23.6548C18.8659 23.6005 19.1326 23.4536 19.3345 23.2359C19.473 23.1104 19.5108 23.1309 19.5179 23.3257C19.5352 23.7075 19.6643 24.0757 19.889 24.3848C20.1137 24.6938 20.4243 24.9301 20.7821 25.0643C21.1399 25.1984 21.5292 25.2246 21.9018 25.1395C22.2743 25.0544 22.6137 24.8617 22.8777 24.5855C23.1417 24.3092 23.3189 23.9615 23.3871 23.5855C23.4553 23.2095 23.4116 22.8218 23.2614 22.4704C23.1112 22.119 22.8612 21.8195 22.5423 21.6089C22.2234 21.3983 21.8497 21.2861 21.4676 21.286H21.4673Z" fill="white"/>
<path d="M23.175 0.3125C10.4071 0.3125 0.0572951 7.10339 0.0572951 15.433C0.0572951 15.6484 0.0546875 16.2427 0.0546875 16.3182C0.0546875 25.1559 9.10096 32.3125 23.1721 32.3125C37.3282 32.3125 46.292 25.1574 46.292 16.3198V15.433C46.2917 7.10339 35.9418 0.3125 23.175 0.3125ZM45.2497 13.7573C41.9186 14.4944 38.6665 15.5515 35.5387 16.914C33.3454 15.0004 28.2777 10.5937 26.9054 9.56399C26.3733 9.11644 25.7679 8.76414 25.1159 8.52263C24.8318 8.43306 24.5357 8.38682 24.2378 8.38544C23.8585 8.39048 23.4823 8.45388 23.1223 8.57342C22.1585 8.97356 21.2703 9.53588 20.4964 10.236L20.4523 10.2708C19.656 10.904 18.8328 11.559 18.2101 11.6975C17.9376 11.7589 17.6591 11.7901 17.3798 11.7905C17.0996 11.8139 16.8175 11.7816 16.5498 11.6954C16.2821 11.6093 16.0341 11.4711 15.82 11.2887C15.7813 11.2389 15.8069 11.1589 15.8971 11.0438L15.9087 11.0282L17.8386 8.94938C19.3497 7.43819 20.7771 6.01135 24.0621 5.93595C24.1168 5.93437 24.172 5.93335 24.226 5.93335C25.718 5.99422 27.1843 6.34152 28.5451 6.95634C30.3735 7.87027 32.3869 8.35314 34.4309 8.36787C36.6669 8.32927 38.8674 7.80305 40.8789 6.82596C43.2226 8.797 44.7771 11.1709 45.2497 13.7573ZM23.179 1.20539C29.9558 1.20539 36.02 3.14781 40.097 6.20709C38.3181 7.01963 36.3908 7.45652 34.4355 7.49045C32.5226 7.47487 30.6387 7.02141 28.9282 6.16486C27.4493 5.48987 25.852 5.11249 24.2274 5.05423C24.1656 5.05423 24.1032 5.05519 24.0421 5.05655C22.0852 5.02791 20.1831 5.70318 18.6824 6.95934C17.7737 7.00696 16.8749 7.17103 16.0081 7.44754C15.3987 7.65077 14.7651 7.77216 14.1238 7.80853C13.8821 7.80853 13.4474 7.78642 13.4084 7.78472C11.1028 7.37885 8.84131 6.75301 6.65505 5.91577C10.7238 3.0244 16.6185 1.20539 23.179 1.20539ZM5.85512 6.51939C8.67473 7.67265 12.0955 8.56322 13.1772 8.63328C13.479 8.65312 13.8005 8.68725 14.1221 8.68793C14.8456 8.65283 15.561 8.5199 16.2489 8.29276C16.6584 8.17797 17.11 8.05274 17.5852 7.96204C17.458 8.08624 17.3316 8.21243 17.2044 8.33992L15.2445 10.4601C15.0955 10.5922 14.99 10.7664 14.9421 10.9597C14.8942 11.1531 14.9061 11.3564 14.9762 11.5428C15.0899 11.7786 15.2687 11.977 15.4914 12.1146C16.1254 12.4729 16.8437 12.6552 17.5719 12.6424C17.8508 12.6443 18.1291 12.6152 18.4017 12.5555C19.2236 12.3715 20.0857 11.6846 20.9983 10.9587C21.7544 10.3059 22.6181 9.78917 23.5508 9.43151C23.783 9.36981 24.022 9.33704 24.2623 9.33395C24.3238 9.33347 24.3853 9.33716 24.4464 9.345C25.1641 9.46285 25.8337 9.78226 26.3769 10.266C27.9861 11.4752 35.1053 17.7035 35.1754 17.7649C35.3168 17.899 35.4281 18.0617 35.5017 18.242C35.5754 18.4224 35.6099 18.6164 35.6028 18.8112C35.5899 18.9979 35.5312 19.1785 35.4319 19.3371C35.3327 19.4958 35.1958 19.6275 35.0336 19.7208C34.7568 19.9058 34.4325 20.0069 34.0997 20.0119C33.8074 20.0122 33.5211 19.9293 33.2743 19.7729C33.2483 19.7514 30.8091 17.5145 29.9107 16.7627C29.7984 16.644 29.6505 16.565 29.4893 16.5377C29.4536 16.537 29.4181 16.5446 29.3857 16.5598C29.3533 16.5751 29.3249 16.5976 29.3027 16.6256C29.1614 16.7995 29.3197 17.0408 29.5062 17.1989L32.3555 20.0644C32.5681 20.2715 32.7066 20.5426 32.7497 20.8362C32.757 21.0763 32.6977 21.3138 32.5783 21.5223C32.4589 21.7308 32.2841 21.9022 32.0732 22.0174C31.7769 22.2261 31.4254 22.3424 31.063 22.3514C30.7736 22.3514 30.4907 22.2654 30.2501 22.1045L29.8415 21.702C29.0942 20.967 28.3227 20.2067 27.7582 19.7358C27.6442 19.6183 27.4952 19.5409 27.3335 19.5152C27.2998 19.5147 27.2665 19.5212 27.2355 19.5344C27.2046 19.5476 27.1768 19.5673 27.154 19.592C27.0896 19.6635 27.0447 19.792 27.206 20.0054C27.2494 20.0627 27.2975 20.1163 27.3498 20.1657L29.4286 22.5012C29.5486 22.6372 29.6187 22.8101 29.6273 22.9913C29.6359 23.1725 29.5824 23.3512 29.4758 23.4979L29.4021 23.5909C29.3412 23.6568 29.2765 23.7192 29.2083 23.7775C28.9142 23.9935 28.5571 24.1067 28.1922 24.0995C28.098 24.1 28.004 24.092 27.9112 24.0758C27.7596 24.0638 27.6159 24.0033 27.5014 23.9031L27.4754 23.8768C27.3624 23.7594 26.3144 22.6894 25.4475 21.9655C25.3399 21.8511 25.1977 21.7751 25.0428 21.7492C25.0073 21.7489 24.9722 21.7562 24.9398 21.7706C24.9073 21.785 24.8784 21.8062 24.8549 21.8328C24.6838 22.0207 24.9414 22.3014 25.0505 22.4045L26.823 24.3607C26.8079 24.404 26.7855 24.4444 26.7567 24.48C26.6931 24.5679 26.4783 24.7831 25.835 24.8638C25.7569 24.8738 25.6783 24.8786 25.5996 24.8781C24.9894 24.8389 24.3958 24.6628 23.863 24.363C24.0529 23.9599 24.1379 23.5154 24.1102 23.0707C24.0824 22.626 23.9428 22.1956 23.7042 21.8193C23.4657 21.4429 23.1359 21.133 22.7456 20.9181C22.3553 20.7033 21.917 20.5905 21.4714 20.5903C21.4403 20.5903 21.4071 20.5913 21.3759 20.5923C21.4518 20.0887 21.362 19.5741 21.1199 19.1261C20.8779 18.678 20.4968 18.3208 20.034 18.1082C19.6859 17.9521 19.3094 17.8691 18.928 17.8645C18.6509 17.8631 18.3759 17.913 18.1169 18.0115C17.8474 17.4882 17.3818 17.0928 16.8218 16.9117C16.5168 16.8036 16.1958 16.7471 15.8722 16.7446C15.3415 16.7416 14.8236 16.9076 14.3934 17.2184C14.1979 16.9727 13.9526 16.7712 13.6738 16.6269C13.3949 16.4826 13.0887 16.3989 12.7752 16.3812C12.4617 16.3636 12.148 16.4124 11.8547 16.5244C11.5614 16.6364 11.295 16.8092 11.0731 17.0313C10.5209 16.6093 8.33114 15.2183 2.4696 13.8875C2.18962 13.8241 1.55409 13.6421 1.15381 13.5247C1.70369 10.8936 3.37559 8.49083 5.85523 6.51939H5.85512ZM16.7277 21.7774L16.6643 21.7207H16.6002C16.5344 21.7256 16.4717 21.7509 16.421 21.7932C16.1691 21.987 15.8624 22.0961 15.5448 22.105C15.3774 22.1036 15.2117 22.0714 15.056 22.01C14.6258 21.8495 14.2686 21.5382 14.0506 21.1341C13.8326 20.73 13.7687 20.2605 13.8708 19.8128C13.8778 19.7803 13.8759 19.7465 13.8655 19.7148C13.8551 19.6832 13.8364 19.655 13.8113 19.633L13.7154 19.5546L13.6257 19.6401C13.3646 19.8937 13.0148 20.0355 12.6507 20.0353C12.3791 20.0364 12.113 19.9591 11.8843 19.8127C11.6556 19.6662 11.474 19.4569 11.3614 19.2097C11.2488 18.9626 11.2099 18.6882 11.2494 18.4196C11.2889 18.1509 11.4052 17.8993 11.5842 17.6951C11.7632 17.4908 11.9973 17.3426 12.2585 17.2682C12.5197 17.1938 12.7968 17.1964 13.0566 17.2757C13.3163 17.3549 13.5477 17.5075 13.7228 17.715C13.898 17.9226 14.0095 18.1763 14.044 18.4456L14.0926 18.8245L14.3007 18.5038C14.5352 18.1399 14.8836 17.8638 15.2915 17.7187C15.6994 17.5735 16.1438 17.5675 16.5555 17.7015C16.8399 17.7908 17.0891 17.9669 17.2682 18.2051C17.4472 18.4434 17.5472 18.7317 17.5539 19.0297C17.5691 19.2134 17.6999 19.2224 17.7253 19.2224C17.7569 19.2202 17.7877 19.2115 17.8159 19.1968C17.844 19.1821 17.8687 19.1617 17.8886 19.137C18.0227 18.997 18.184 18.8859 18.3625 18.8105C18.5411 18.7351 18.7332 18.697 18.927 18.6985C19.1955 18.7044 19.4602 18.7642 19.7052 18.8743C21.0334 19.444 20.4311 21.1319 20.424 21.1492C20.3094 21.4289 20.305 21.5524 20.4123 21.6237L20.4646 21.6483H20.5036C20.5921 21.6384 20.6788 21.6157 20.7609 21.5811C20.9872 21.4916 21.2263 21.4388 21.4692 21.4246H21.4699C21.7078 21.4247 21.9434 21.4716 22.1632 21.5627C22.383 21.6538 22.5827 21.7873 22.7509 21.9556C22.9191 22.1239 23.0525 22.3237 23.1435 22.5435C23.2345 22.7633 23.2813 22.999 23.2812 23.2369C23.2812 23.4748 23.2342 23.7104 23.1431 23.9302C23.052 24.15 22.9185 24.3497 22.7502 24.5179C22.5819 24.6861 22.3822 24.8195 22.1623 24.9105C21.9425 25.0015 21.7069 25.0483 21.4689 25.0482C21.0022 25.051 20.5527 24.8723 20.2154 24.5497C19.878 24.2271 19.6794 23.7861 19.6613 23.3197C19.6587 23.2367 19.65 23.0163 19.4629 23.0163C19.3779 23.0261 19.2996 23.0674 19.2434 23.132C19.0122 23.3782 18.6927 23.5224 18.3552 23.5331C18.1536 23.5289 17.9548 23.4858 17.7697 23.4061C16.738 22.9872 16.7238 22.2788 16.7655 21.9939C16.7756 21.9573 16.7775 21.9188 16.771 21.8814C16.7644 21.8439 16.7497 21.8084 16.7277 21.7774ZM23.1788 29.6457C10.9022 29.6457 0.950359 23.2789 0.950359 15.4255C0.952266 15.1116 0.970146 14.798 1.00393 14.4859C1.10194 14.5093 2.07692 14.7424 2.27884 14.7878C8.26652 16.1179 10.2451 17.5008 10.5794 17.7623C10.4373 18.1032 10.3815 18.4739 10.417 18.8416C10.4526 19.2092 10.5783 19.5624 10.7832 19.8698C10.988 20.1772 11.2656 20.4292 11.5912 20.6035C11.9169 20.7778 12.2805 20.8691 12.6499 20.8691C12.788 20.8693 12.9257 20.8566 13.0614 20.831C13.1498 21.2757 13.3523 21.6897 13.649 22.0325C13.9458 22.3752 14.3265 22.635 14.7539 22.7862C15.0086 22.8862 15.2796 22.9385 15.5532 22.9403C15.7254 22.9414 15.8971 22.9202 16.0639 22.8773C16.2695 23.3101 16.5906 23.6777 16.9919 23.9396C17.3931 24.2015 17.8588 24.3475 18.3378 24.3616C18.5715 24.3615 18.8033 24.3201 19.0226 24.2393C19.1886 24.6456 19.4533 25.0041 19.7928 25.2824C20.1322 25.5607 20.5356 25.7499 20.9666 25.8331C21.3976 25.9163 21.8425 25.8907 22.2611 25.7587C22.6797 25.6267 23.0588 25.3924 23.3641 25.0771C24.047 25.475 24.815 25.7043 25.6043 25.746C25.7176 25.7457 25.8308 25.7385 25.9432 25.7246C26.2346 25.7157 26.5208 25.6448 26.7826 25.5167C27.0445 25.3885 27.2761 25.2061 27.4619 24.9814C27.497 24.9332 27.5284 24.8823 27.5557 24.8292C27.7884 24.9001 28.0298 24.9379 28.273 24.9414C28.7989 24.9309 29.3069 24.7492 29.7202 24.424C30.1566 24.1375 30.4632 23.6914 30.5743 23.1814C30.5752 23.1757 30.5759 23.1701 30.5763 23.1644C30.7357 23.1968 30.898 23.2131 31.0608 23.2131C31.5922 23.2065 32.1096 23.0424 32.5477 22.7416C32.8809 22.5484 33.1559 22.2689 33.3436 21.9326C33.5313 21.5963 33.6249 21.2156 33.6145 20.8306C33.776 20.8642 33.9406 20.8813 34.1055 20.8816C34.6014 20.8762 35.0851 20.7273 35.4981 20.4529C35.7725 20.2852 36.0034 20.055 36.1719 19.781C36.3404 19.5071 36.4416 19.1972 36.4675 18.8766C36.5003 18.4305 36.3928 17.9853 36.1598 17.6034C39.1465 16.3843 42.2304 15.4185 45.379 14.7163C45.3971 14.9514 45.407 15.188 45.407 15.426C45.407 23.2789 35.4553 29.6457 23.179 29.6457L23.1788 29.6457Z" fill="#0A0080"/>
<path d="M125.549 4.96854C124.71 3.91629 123.435 3.39032 121.725 3.39063C120.017 3.39063 118.743 3.9166 117.903 4.96854C117.06 6.02616 116.615 7.34521 116.642 8.69708C116.608 10.0546 117.055 11.3805 117.903 12.4409C118.742 13.4759 120.016 13.9939 121.725 13.9949C123.436 13.9949 124.71 13.4769 125.549 12.4409C126.397 11.3805 126.843 10.0545 126.808 8.69708C126.837 7.34532 126.391 6.02625 125.549 4.96854ZM123.469 11.003C123.253 11.2574 122.984 11.4618 122.681 11.6019C122.378 11.742 122.049 11.8146 121.715 11.8146C121.381 11.8146 121.051 11.742 120.748 11.6019C120.445 11.4618 120.176 11.2574 119.96 11.003C119.51 10.3219 119.294 9.5122 119.345 8.69708C119.293 7.88344 119.509 7.07517 119.96 6.39589C120.177 6.14283 120.446 5.9397 120.749 5.80044C121.052 5.66117 121.381 5.58907 121.715 5.58907C122.048 5.58907 122.378 5.66117 122.68 5.80044C122.983 5.9397 123.252 6.14283 123.469 6.39589C123.917 7.07644 124.131 7.88407 124.08 8.69708C124.131 9.51157 123.917 10.3206 123.469 11.003Z" fill="#0A0080"/>
<path d="M104.091 4.08701C103.183 3.64198 102.181 3.41972 101.169 3.43861C99.483 3.43861 98.2936 3.87762 97.6011 4.75564C97.1432 5.38198 96.8862 6.13255 96.8641 6.90809H99.3831C99.4225 6.57501 99.5507 6.25865 99.7543 5.99207C99.9284 5.82366 100.137 5.69543 100.366 5.61638C100.595 5.53732 100.839 5.50937 101.08 5.53448C101.515 5.50943 101.95 5.58974 102.348 5.7686C102.493 5.85341 102.611 5.97827 102.688 6.12829C102.764 6.2783 102.796 6.44713 102.779 6.61462C102.776 6.78199 102.721 6.94422 102.619 7.07761C102.518 7.21101 102.377 7.30858 102.217 7.35609C101.88 7.47741 101.529 7.55447 101.173 7.58534L100.28 7.69469C99.4781 7.76117 98.696 7.97891 97.975 8.3364C97.5102 8.6008 97.1294 8.99108 96.8766 9.46233C96.6237 9.93357 96.509 10.4666 96.5458 11.0002C96.5213 11.4086 96.5883 11.8174 96.742 12.1966C96.8956 12.5758 97.1321 12.9159 97.434 13.192C98.0719 13.7035 98.8678 13.9771 99.6854 13.9661C105.38 14.2212 105.316 10.9656 105.368 10.2885V6.54171C105.368 5.33978 104.942 4.52154 104.091 4.08701ZM102.768 9.77333C102.8 10.112 102.748 10.4532 102.618 10.7675C102.488 11.0817 102.283 11.3594 102.021 11.5767C101.56 11.9005 101.01 12.0734 100.447 12.0716C100.116 12.0807 99.7923 11.9753 99.5301 11.7733C99.3965 11.6525 99.293 11.5021 99.2277 11.3343C99.1625 11.1665 99.1372 10.9857 99.154 10.8064C99.1424 10.5827 99.194 10.3602 99.3029 10.1645C99.4118 9.96871 99.5736 9.80756 99.7698 9.69947C100.148 9.51664 100.553 9.39675 100.97 9.34454L101.565 9.23423C101.802 9.1929 102.036 9.13223 102.264 9.05282C102.441 8.98828 102.61 8.90432 102.768 8.80249V9.77333Z" fill="#0A0080"/>
<path d="M91.1051 5.66665C91.3757 5.64505 91.6475 5.68856 91.8978 5.79354C92.1481 5.89851 92.3697 6.0619 92.5439 6.27004C92.7555 6.5676 92.8912 6.91237 92.9391 7.27432H95.7477C95.5943 5.8566 95.0987 4.86763 94.2609 4.30744C93.2909 3.71293 92.1659 3.42066 91.0293 3.46789C90.356 3.4313 89.6828 3.53942 89.0548 3.78497C88.4269 4.03052 87.8589 4.4078 87.3891 4.89139C86.4532 6.00016 85.9805 7.42683 86.0691 8.87502C86.0104 10.2093 86.4344 11.52 87.2634 12.5671C88.0595 13.5157 89.3014 13.9902 90.989 13.9906C91.7172 14.0382 92.4461 13.9076 93.1125 13.6101C93.7789 13.3126 94.3627 12.8571 94.8134 12.2832C95.3283 11.6397 95.6428 10.8592 95.7179 10.0386H92.919C92.8848 10.5041 92.7135 10.949 92.4269 11.3173C92.2499 11.4963 92.0351 11.6334 91.7983 11.7185C91.5614 11.8037 91.3085 11.8347 91.0581 11.8093C90.6557 11.8354 90.256 11.7277 89.9212 11.5031C89.5864 11.2784 89.3352 10.9494 89.2068 10.5672C89.0061 10.0041 88.914 9.40815 88.9353 8.8108C88.9139 8.18623 89.0059 7.56297 89.2068 6.97121C89.3348 6.57472 89.5905 6.23173 89.9338 5.99574C90.2772 5.75976 90.689 5.64405 91.1051 5.66665Z" fill="#0A0080"/>
<path d="M85.3198 3.46875C79.5489 3.46875 79.8905 8.57759 79.8905 8.57759V13.7673H82.5095V8.90009C82.4746 8.29411 82.5774 7.68809 82.81 7.12745C83.1697 6.44648 83.8728 6.10565 84.9193 6.10497C84.998 6.10497 85.1016 6.10973 85.2291 6.11551C85.3567 6.1222 85.5016 6.13252 85.6685 6.15287V3.48916C85.5524 3.48048 85.4766 3.47782 85.444 3.4738C85.4099 3.4709 85.3687 3.46875 85.3198 3.46875Z" fill="#0A0080"/>
<path d="M77.7918 5.40913C77.3695 4.76542 76.773 4.25483 76.0719 3.93672C75.3343 3.61852 74.5375 3.46028 73.7343 3.47244C73.0786 3.44671 72.4246 3.55568 71.8127 3.7926C71.2008 4.02953 70.6439 4.38939 70.1765 4.84996C69.2634 5.7708 68.8061 7.09229 68.8047 8.81444C68.8047 10.6542 69.3111 11.9818 70.3239 12.7972C71.3114 13.6046 72.5518 14.0383 73.8272 14.0221C74.5186 14.0624 75.2106 13.9536 75.8562 13.703C76.5018 13.4524 77.086 13.0659 77.5692 12.5698C77.9957 12.152 78.3087 11.6324 78.4785 11.06H75.7008C75.6011 11.2084 75.4806 11.3419 75.343 11.4562C74.9161 11.7548 74.3985 11.8952 73.8792 11.8533C73.392 11.8812 72.9072 11.7651 72.4854 11.5195C72.1437 11.2946 71.8662 10.9848 71.6802 10.6204C71.4942 10.256 71.4061 9.84949 71.4245 9.44079H78.6706C78.6912 8.78119 78.662 8.12098 78.5833 7.46577C78.479 6.72905 78.2083 6.02573 77.7918 5.40913ZM71.4888 7.72376C71.5494 7.14981 71.7921 6.61032 72.1813 6.18417C72.3872 5.98777 72.6315 5.83596 72.8987 5.73825C73.166 5.64055 73.4505 5.59904 73.7346 5.61633C74.2978 5.59819 74.8477 5.7896 75.278 6.1535C75.494 6.3545 75.6667 6.59741 75.7856 6.86739C75.9045 7.13737 75.9671 7.42876 75.9696 7.72376H71.4888Z" fill="#0A0080"/>
<path d="M63.5996 3.43871C63.0322 3.43375 62.4708 3.55564 61.9565 3.79544C61.4422 4.03525 60.988 4.38693 60.627 4.82479C60.272 4.37957 59.8187 4.0227 59.3026 3.78221C58.7865 3.54171 58.2216 3.42413 57.6524 3.43871C55.0952 3.43871 53.4453 5.3178 53.4453 7.8051V13.7705H55.8386V7.74756C55.8236 7.50337 55.8599 7.25875 55.9452 7.02943C56.0304 6.80012 56.1628 6.59119 56.3336 6.41609C56.5045 6.24099 56.7101 6.10359 56.9373 6.01275C57.1644 5.9219 57.4081 5.87961 57.6526 5.88859C57.8948 5.87589 58.1369 5.91626 58.362 6.00688C58.587 6.09751 58.7895 6.23621 58.9553 6.41327C59.1212 6.59033 59.2463 6.80148 59.322 7.03196C59.3977 7.26243 59.4221 7.50666 59.3936 7.74756V13.7705H61.7869V7.74756C61.7735 7.50384 61.8109 7.25999 61.8966 7.03145C61.9824 6.80292 62.1146 6.59468 62.2851 6.41992C62.4555 6.24517 62.6603 6.10771 62.8867 6.01625C63.113 5.92479 63.3558 5.88132 63.5998 5.88859C63.8429 5.87572 64.0859 5.91581 64.312 6.00609C64.5381 6.09637 64.7419 6.23468 64.9093 6.41147C65.0767 6.58825 65.2037 6.79929 65.2815 7.02998C65.3593 7.26067 65.3861 7.50551 65.36 7.74756V13.7705H67.7513V7.8051C67.7512 5.24139 66.2116 3.43871 63.5996 3.43871Z" fill="#0A0080"/>
<path d="M113.225 2.16188L113.222 4.9676C112.943 4.50945 112.551 4.13063 112.083 3.86734C111.591 3.59695 111.037 3.46013 110.476 3.47053C109.876 3.44999 109.28 3.57143 108.735 3.82495C108.191 4.07847 107.714 4.45692 107.344 4.92951C106.503 6.11606 106.089 7.55244 106.17 9.0043C106.116 10.3155 106.539 11.6019 107.361 12.6245C108.156 13.5625 109.712 13.975 111.095 13.975C115.917 13.975 115.86 9.84079 115.86 9.84079L115.862 0.324965C115.862 0.324965 113.225 0.0429415 113.225 2.16188ZM112.722 11.0222C112.535 11.2908 112.283 11.5073 111.989 11.651C111.695 11.7947 111.37 11.8609 111.043 11.8433C110.72 11.8629 110.398 11.7969 110.109 11.6519C109.819 11.5068 109.574 11.288 109.396 11.0175C109.005 10.3265 108.817 9.53908 108.854 8.74597C108.827 7.99679 109.012 7.25515 109.387 6.60594C109.561 6.3236 109.809 6.09407 110.104 5.94198C110.399 5.7899 110.729 5.721 111.06 5.7427C111.542 5.73633 112.009 5.90466 112.376 6.21649C112.989 6.74023 113.297 7.68029 113.297 8.89563C113.33 9.64696 113.129 10.3899 112.722 11.0222Z" fill="#0A0080"/>
<path d="M58.9788 17.7708C56.822 17.6691 55.7326 18.1831 55.0229 18.7249C54.0418 19.4732 53.4453 20.5806 53.4453 22.35V31.4472H54.7131C55.0555 31.4514 55.387 31.3272 55.6424 31.0991C55.7762 30.9815 55.883 30.8364 55.9555 30.6737C56.028 30.511 56.0645 30.3345 56.0624 30.1564V26.7567C56.3445 27.2646 56.7738 27.6752 57.2938 27.9344C57.8261 28.1712 58.404 28.2878 58.9865 28.2758C59.5594 28.2865 60.1268 28.1613 60.6421 27.9104C61.1573 27.6595 61.6058 27.2901 61.9507 26.8325C62.7623 25.7089 63.169 24.3435 63.1045 22.959C63.1725 21.5853 62.7321 20.2347 61.8673 19.1651C61.5097 18.7441 61.068 18.4026 60.5705 18.1625C60.0731 17.9224 59.5309 17.7889 58.9788 17.7708ZM59.8716 25.2376C59.6968 25.4923 59.4606 25.6989 59.1849 25.8384C58.9092 25.9778 58.6029 26.0456 58.2941 26.0355C57.9735 26.052 57.654 25.9875 57.3649 25.8481C57.0758 25.7086 56.8264 25.4987 56.6397 25.2376C56.2092 24.6016 56.0058 23.839 56.0627 23.0731C56.0011 22.2761 56.1887 21.4798 56.5998 20.7942C56.7815 20.5369 57.0248 20.3291 57.3073 20.1897C57.5899 20.0504 57.9028 19.9839 58.2177 19.9963C58.5381 19.9806 58.8573 20.0454 59.1463 20.1848C59.4353 20.3242 59.6847 20.5337 59.8719 20.7942C60.2986 21.4745 60.5009 22.2716 60.4501 23.0731C60.4921 23.8377 60.2895 24.5958 59.8716 25.2376Z" fill="#0A0080"/>
<path d="M81.4725 18.7079C80.5158 17.9669 79.3145 17.6148 78.1092 17.722C76.522 17.7652 75.3674 18.2092 74.6491 19.1826C73.8881 20.3037 73.5107 21.6411 73.5731 22.9946C73.5205 24.1331 73.8025 25.262 74.3844 26.2419C74.8432 26.9925 75.5243 27.5817 76.3332 27.9279C77.0561 28.2294 77.8554 28.2965 78.6185 28.1196C78.9976 28.0329 79.3553 27.8706 79.6703 27.6426C79.9854 27.4146 80.2512 27.1254 80.452 26.7924V27.4349C80.4533 28.0889 80.2486 28.7268 79.8671 29.258C79.582 29.625 79.1817 29.8854 78.7307 29.9974C78.3135 30.0734 77.8832 30.0218 77.4958 29.8493C77.1085 29.6769 76.7821 29.3916 76.5595 29.0307H73.8004C74.5147 31.1789 75.7981 32.1264 78.1093 32.2943C81.8379 32.5627 83.0261 29.4057 83.0223 27.7025V22.3502C83.0222 20.5808 82.4459 19.4473 81.4725 18.7079ZM80.3763 23.9652C80.3241 24.4351 80.1549 24.8845 79.8844 25.2723C79.4058 25.9293 78.6629 26.1636 77.6556 25.9752C76.6467 25.7843 76.1423 24.8167 76.1423 23.0723C76.1277 22.3257 76.2832 21.5855 76.5969 20.9078C76.7563 20.5923 77.0079 20.3327 77.3182 20.1635C77.6286 19.9943 77.9831 19.9234 78.3346 19.9603C78.6121 19.9447 78.8891 19.999 79.1401 20.1183C79.3911 20.2376 79.6081 20.4181 79.7712 20.6431C80.1021 21.1041 80.3164 21.6386 80.3955 22.2006C80.4831 22.786 80.4766 23.3817 80.3763 23.9652Z" fill="#0A0080"/>
<path d="M71.3314 18.4462C70.4222 18.0022 69.4208 17.78 68.4093 17.7979C66.7234 17.7979 65.5345 18.2371 64.8427 19.1155C64.3853 19.7416 64.1285 20.4916 64.1062 21.2666H66.6255C66.665 20.9341 66.7928 20.6182 66.9957 20.3517C67.1698 20.1833 67.3787 20.0551 67.6076 19.9759C67.8366 19.8967 68.0801 19.8685 68.321 19.8933C68.7563 19.8679 69.1913 19.9482 69.5888 20.1273C69.7342 20.2123 69.8522 20.3373 69.9286 20.4874C70.0049 20.6376 70.0366 20.8065 70.0196 20.9741C70.0173 21.1414 69.9614 21.3036 69.8603 21.437C69.7592 21.5704 69.6181 21.6679 69.4576 21.7154C69.121 21.8359 68.7704 21.9129 68.4142 21.9446L67.5223 22.053C66.7206 22.1197 65.9387 22.3374 65.2178 22.6946C64.7529 22.9586 64.372 23.3485 64.119 23.8195C63.866 24.2905 63.7513 24.8234 63.7879 25.3568C63.7632 25.7651 63.8301 26.1739 63.9838 26.553C64.1375 26.9322 64.374 27.2722 64.676 27.5481C65.3137 28.0603 66.1099 28.3343 66.9278 28.323C72.6192 28.5781 72.5552 25.3222 72.607 24.6461V20.899C72.6069 19.6985 72.1817 18.8809 71.3314 18.4462ZM70.0079 24.1312C70.0398 24.4697 69.9885 24.8109 69.8584 25.125C69.7284 25.4392 69.5236 25.7169 69.2618 25.9339C68.8011 26.2577 68.2513 26.4306 67.6881 26.4287C67.3573 26.4377 67.0334 26.3324 66.7712 26.1304C66.6375 26.0098 66.5338 25.8595 66.4684 25.6917C66.403 25.5239 66.3776 25.3431 66.3944 25.1637C66.383 24.94 66.4347 24.7175 66.5438 24.5218C66.6528 24.3261 66.8148 24.165 67.011 24.057C67.3887 23.8745 67.7936 23.7546 68.2098 23.7022L68.8053 23.5919C69.0424 23.5514 69.2756 23.4911 69.5026 23.4116C69.6798 23.3468 69.8493 23.2625 70.008 23.1604L70.0079 24.1312Z" fill="#0A0080"/>
<path d="M92.923 19.2738C92.0819 18.2208 90.8071 17.6947 89.0984 17.6953C87.3913 17.6953 86.1178 18.2215 85.2776 19.2738C84.4353 20.3309 83.9895 21.6493 84.0175 23.0006C83.9832 24.3578 84.4295 25.6835 85.2776 26.7436C86.1166 27.7775 87.3902 28.295 89.0984 28.2963C90.8084 28.2963 92.0832 27.7787 92.923 26.7436C93.7694 25.6827 94.2146 24.3573 94.1802 23.0006C94.2083 21.6498 93.7636 20.3316 92.923 19.2738ZM90.8419 25.3042C90.6262 25.5587 90.3576 25.7632 90.0549 25.9035C89.7522 26.0438 89.4225 26.1164 89.0888 26.1164C88.7552 26.1164 88.4255 26.0438 88.1228 25.9035C87.82 25.7632 87.5515 25.5587 87.3358 25.3042C86.8835 24.6245 86.6668 23.8152 86.7191 23.0006C86.6666 22.1871 86.8833 21.379 87.3358 20.7009C87.5525 20.448 87.8214 20.2449 88.124 20.1057C88.4266 19.9664 88.7557 19.8943 89.0888 19.8943C89.4219 19.8943 89.7511 19.9664 90.0537 20.1057C90.3563 20.2449 90.6252 20.448 90.8419 20.7009C91.2901 21.3807 91.5046 22.188 91.4528 23.0006C91.5044 23.8144 91.29 24.6229 90.8419 25.3042Z" fill="#0A0080"/>
</svg>
