<svg width="25" height="24" viewBox="0 0 25 24" fill="none" xmlns="http://www.w3.org/2000/svg">
<path d="M2.0708 20.2456V3.71533C2.0835 3.6792 2.10059 3.64404 2.1084 3.60742C2.20654 3.13965 2.44678 2.75977 2.81104 2.45264C3.09619 2.21191 3.43359 2.09131 3.78613 2C9.29639 2 14.8062 2 20.3164 2C20.3335 2.00928 20.3496 2.02246 20.3677 2.02637C21.2393 2.21777 21.7817 2.74609 21.9966 3.61279C22.0059 3.65088 22.0454 3.68115 22.0708 3.71533V20.2456C22.043 20.2993 22.0024 20.3501 21.9883 20.4067C21.7651 21.3188 20.9604 21.9575 20.0215 21.9595C19.145 21.9614 18.2681 21.9595 17.3916 21.9595C12.9629 21.9595 8.53418 21.9585 4.10547 21.9604C3.45996 21.9604 2.93994 21.707 2.52393 21.2202C2.28174 20.9365 2.16162 20.5981 2.07031 20.2451L2.0708 20.2456ZM10.0737 10.0005V18.9512H13.0425C13.0425 18.8647 13.0425 18.7886 13.0425 18.7124C13.0425 17.4653 13.0405 16.2183 13.0435 14.9707C13.0449 14.4839 13.0322 13.9951 13.0728 13.5112C13.1206 12.939 13.46 12.541 13.9702 12.3086C14.479 12.0771 14.9727 12.1528 15.4204 12.4834C15.874 12.8184 16.0532 13.2837 16.0518 13.8369C16.0483 15.4609 16.0508 17.085 16.0508 18.7085C16.0508 18.7891 16.0508 18.8696 16.0508 18.9497H19.0327V18.7275C19.0327 16.9478 19.0293 15.168 19.0342 13.3882C19.0371 12.2754 18.6265 11.3486 17.7822 10.6304C16.7446 9.74756 15.2495 9.4248 13.936 10.3291C13.6152 10.5498 13.3413 10.8394 13.0459 11.0972V10.0005H10.0737ZM8.03711 18.9517V9.99951H5.07959V18.9517H8.03662H8.03711ZM8.35107 6.49854C8.34082 5.5166 7.61279 4.70557 6.56494 4.70459C5.54297 4.70361 4.77637 5.46631 4.77588 6.49219C4.77539 7.52832 5.5708 8.26416 6.54932 8.27783C7.54004 8.29199 8.3457 7.48975 8.35107 6.49854Z" fill="#202124"/>
</svg>
