<svg width="34" height="24" viewBox="0 0 34 24" fill="none" xmlns="http://www.w3.org/2000/svg">
<path d="M33.4995 10.7531C33.4672 4.79362 26.117 1.94814e-06 17.1127 1.94814e-06H16.8989C13.9841 -0.00119595 11.0951 0.550051 8.38277 1.62496C3.82819 3.45709 0.717845 6.70701 0.5 10.4363C0.5 10.5378 0.5 10.6394 0.5 10.745C0.5 10.7897 0.5 10.8344 0.5 10.8791V10.9278C0.5 10.9603 0.5 10.9888 0.5 11.0172C0.5 11.0456 0.5 11.1838 0.5 11.2894C0.5 11.395 0.5 11.4925 0.5 11.5128C0.5 11.5331 0.5 11.5575 0.5 11.5778V11.655C0.5 11.7362 0.5 11.8216 0.5 11.9069C0.5 11.9922 0.5 12.0572 0.5 12.1344C0.677503 15.0999 2.27503 17.7973 5.04248 19.7676C8.0439 21.9044 12.1184 23.0175 16.8344 23.0175H17.0845C21.9255 22.9769 26.0807 21.7744 29.0942 19.5482C31.9625 17.4276 33.5318 14.523 33.4995 11.3625V10.7531Z" fill="#2D3277"/>
<path d="M15.3747 15.3885C15.5231 15.3298 15.6795 15.2942 15.8386 15.2829C16.0003 15.2721 16.1625 15.2947 16.3152 15.3493C16.4679 15.4039 16.608 15.4893 16.7268 15.6003C16.8455 15.7113 16.9406 15.8456 17.006 15.9949C17.0714 16.1442 17.1059 16.3053 17.1072 16.4685C17.1086 16.6317 17.0769 16.7934 17.014 16.9438C16.9511 17.0942 16.8583 17.2301 16.7414 17.3431C16.6246 17.4562 16.486 17.5439 16.3342 17.6011C16.1824 17.6583 16.0206 17.6837 15.8588 17.6756C15.5545 17.6781 15.2611 17.5619 15.04 17.3514C14.8189 17.1409 14.6873 16.8524 14.6727 16.5463C14.6727 16.2741 14.5154 16.2294 14.4307 16.2294C14.3453 16.2384 14.2662 16.2789 14.2088 16.3432C14.1372 16.4222 14.0508 16.4862 13.9546 16.5315C13.8583 16.5768 13.7542 16.6026 13.648 16.6072C13.5173 16.6076 13.3881 16.5799 13.2688 16.526C13.0646 16.4732 12.8866 16.347 12.7684 16.1711C12.6502 15.9952 12.6001 15.7819 12.6274 15.5713C12.6382 15.5301 12.6391 15.4868 12.63 15.4451C12.6209 15.4034 12.602 15.3645 12.575 15.3317C12.5364 15.2987 12.4909 15.2751 12.4418 15.2626C12.4027 15.2579 12.3631 15.2617 12.3255 15.2736C12.288 15.2855 12.2534 15.3053 12.224 15.3317C12.0574 15.4739 11.8549 15.5667 11.639 15.5998C11.5315 15.6007 11.4248 15.5814 11.3244 15.5429C11.035 15.4533 10.7885 15.2598 10.6315 14.9992C10.4746 14.7386 10.4182 14.4289 10.4732 14.1292C10.4847 14.0883 10.484 14.0448 10.4711 14.0044C10.4581 13.9639 10.4336 13.9282 10.4005 13.9017C10.2916 13.8326 10.1908 13.9342 10.1262 13.9992C10.0534 14.0704 9.96538 14.1239 9.86889 14.1555C9.7724 14.1872 9.66999 14.1963 9.5695 14.182C9.3264 14.1645 9.09799 14.0583 8.92714 13.8833C8.7563 13.7083 8.65478 13.4765 8.64164 13.2314C8.64057 13.1119 8.6629 12.9934 8.70733 12.8825C8.75176 12.7717 8.81743 12.6708 8.9006 12.5856C8.98376 12.5003 9.08279 12.4324 9.19202 12.3857C9.30125 12.339 9.41855 12.3144 9.53722 12.3133C9.75142 12.2816 9.96942 12.3357 10.1444 12.4641C10.3194 12.5925 10.4374 12.7848 10.4732 12.9998C10.4754 13.0174 10.4754 13.0351 10.4732 13.0527C10.4732 13.1298 10.4974 13.2355 10.5942 13.268C10.691 13.3005 10.7636 13.1989 10.804 13.1339C10.8138 13.117 10.8245 13.1008 10.8362 13.0852L10.8645 13.0486C10.9774 12.8864 11.1321 12.7584 11.312 12.6782C11.4918 12.598 11.69 12.5688 11.8851 12.5936C12.0219 12.5935 12.1578 12.614 12.2885 12.6545C12.4744 12.7236 12.6334 12.8508 12.7423 13.0175C12.8511 13.1842 12.9042 13.3815 12.8937 13.5808C12.8946 13.6405 12.918 13.6976 12.9592 13.7406C13.0004 13.7836 13.0563 13.8092 13.1155 13.8123C13.1513 13.811 13.1864 13.802 13.2184 13.7859C13.2504 13.7698 13.2786 13.7469 13.3011 13.7189C13.3858 13.6114 13.4913 13.5224 13.6113 13.4574C13.7313 13.3925 13.8633 13.3529 13.999 13.3411C14.1771 13.3426 14.3529 13.3813 14.5154 13.4548C15.3787 13.8204 14.9874 14.9417 14.9834 14.9498C14.9309 15.0798 14.8462 15.3032 15.0277 15.421H15.0681H15.1367C15.2034 15.4155 15.2688 15.3991 15.3303 15.3723L15.3747 15.3885Z" fill="white"/>
<path d="M32.5999 9.46542C30.2826 10.0092 28.0215 10.7723 25.8467 11.7444C24.2855 10.3957 20.6789 7.2758 19.6986 6.56082C19.3079 6.23598 18.8643 5.98171 18.3875 5.80928C18.1762 5.7422 17.9554 5.71064 17.734 5.71584C17.459 5.72108 17.1867 5.77045 16.9271 5.86209C16.2315 6.1557 15.5915 6.56799 15.0351 7.0808L14.9988 7.1133C14.5426 7.5417 14.0138 7.8843 13.4376 8.12484C13.2508 8.16672 13.0601 8.18851 12.8688 8.18984C12.5092 8.21784 12.1519 8.11235 11.8643 7.89328L11.9086 7.82422L13.2681 6.3252C14.3211 5.2446 15.3135 4.22901 17.6129 4.15588H17.7259C18.77 4.19476 19.7965 4.43904 20.7475 4.87493C22.0722 5.51789 23.5249 5.84853 24.9955 5.84178C26.5701 5.80343 28.1181 5.42378 29.5339 4.72868C31.1315 6.09364 32.2166 7.7186 32.5999 9.46542Z" fill="white"/>
<path d="M16.9268 0.743436H17.1326C19.2997 0.735627 21.4572 1.03233 23.5429 1.62497L23.6841 1.6656L23.9665 1.75091C25.6879 2.28623 27.3138 3.09391 28.7833 4.14365C27.5903 4.68301 26.3025 4.97718 24.9952 5.00894H24.9347C23.6083 4.9972 22.3015 4.68625 21.1103 4.09897C20.0458 3.62085 18.8987 3.35726 17.7337 3.32305H17.5521C16.149 3.31482 14.7888 3.81026 13.7156 4.72051C13.0697 4.7653 12.4316 4.88944 11.8155 5.09019C11.3954 5.23847 10.9569 5.32734 10.5125 5.35425H10.0607H10.0042C8.41603 5.08283 6.85622 4.66398 5.34473 4.10303C8.32598 2.00278 12.5175 0.779998 16.9268 0.743436Z" fill="#FFD100"/>
<path d="M4.59834 4.67981C6.684 5.52072 9.1045 6.11789 9.84276 6.15852H10.0082C10.1736 6.15852 10.347 6.17883 10.5205 6.18289C11.0529 6.15894 11.5795 6.0619 12.0858 5.89446C12.2875 5.83353 12.4892 5.77665 12.6909 5.72791L12.6626 5.75634L11.2789 7.2838C11.16 7.39424 11.0768 7.53811 11.0401 7.69676C11.0034 7.8554 11.015 8.02149 11.0732 8.17346C11.1626 8.36024 11.3024 8.51791 11.4766 8.62845C11.9473 8.89174 12.4794 9.02357 13.0176 9.01032C13.2228 9.00944 13.4272 8.98491 13.6268 8.93719C14.2279 8.79907 14.8371 8.2994 15.5067 7.7591C16.0309 7.29588 16.6299 6.9263 17.2777 6.66632C17.4331 6.62403 17.5929 6.60084 17.7538 6.59726H17.8748C18.3683 6.67753 18.8296 6.8957 19.2061 7.22693C20.2993 8.0394 24.9709 12.1018 25.5115 12.5487C25.6039 12.6336 25.6775 12.7372 25.7276 12.8527C25.7776 12.9682 25.8029 13.093 25.8019 13.219C25.7966 13.3418 25.7596 13.4611 25.6945 13.5651C25.6294 13.6691 25.5385 13.7542 25.4308 13.8121C25.2507 13.9354 25.0393 14.0044 24.8216 14.0111C24.6401 14.0101 24.4621 13.961 24.3053 13.8689C24.3053 13.8689 24.2447 13.8121 24.1883 13.7308C23.7566 13.3246 22.4455 12.1587 21.9049 11.6996C21.8099 11.597 21.6806 11.5333 21.5418 11.5209C21.5009 11.5204 21.4604 11.5293 21.4233 11.5469C21.3863 11.5645 21.3537 11.5903 21.328 11.6224C21.211 11.7727 21.2716 11.988 21.4854 12.1668L23.5347 14.198C23.67 14.3326 23.7579 14.5081 23.7848 14.6977C23.7899 14.8517 23.7527 15.0041 23.6772 15.1381C23.6018 15.2722 23.491 15.3826 23.3572 15.4573C23.1644 15.5984 22.9338 15.6776 22.6956 15.6848C22.5111 15.6877 22.3294 15.6384 22.1712 15.5426L21.8605 15.2339C21.328 14.718 20.7794 14.1858 20.38 13.8527C20.2807 13.7537 20.1516 13.6908 20.0129 13.6739C19.975 13.6745 19.9377 13.6826 19.903 13.698C19.8684 13.7133 19.8371 13.7356 19.8112 13.7633C19.7547 13.8324 19.6821 13.9746 19.8475 14.1695C19.8794 14.214 19.9159 14.2548 19.9564 14.2914L21.4491 15.9489C21.5206 16.0277 21.5629 16.129 21.5687 16.2356C21.5746 16.3422 21.5437 16.4475 21.4813 16.5339L21.437 16.5989C21.3966 16.6435 21.3522 16.6842 21.3119 16.7207C21.1211 16.8642 20.8884 16.9399 20.6503 16.936C20.5899 16.9406 20.5292 16.9406 20.4688 16.936C20.3034 16.9076 20.2509 16.867 20.2348 16.8467L20.1864 16.7979C19.7642 16.3529 19.3184 15.9311 18.8511 15.5345C18.7567 15.4392 18.6329 15.379 18.5001 15.3639C18.4605 15.3633 18.4212 15.3713 18.385 15.3875C18.3488 15.4036 18.3165 15.4274 18.2903 15.4573C18.1652 15.5995 18.2217 15.8067 18.4355 16.0017L19.557 17.2651C19.5288 17.3057 19.4037 17.4438 18.9761 17.5007C18.9197 17.5047 18.8631 17.5047 18.8067 17.5007C18.4248 17.4793 18.0519 17.3754 17.7134 17.196C17.8083 16.9542 17.8563 16.6963 17.8546 16.4364C17.8505 15.9129 17.6429 15.4119 17.2765 15.0406C16.91 14.6693 16.4138 14.4573 15.894 14.4499C15.9276 14.0835 15.8455 13.7158 15.6593 13.3992C15.4731 13.0826 15.1924 12.8333 14.8572 12.6868C14.602 12.5765 14.328 12.5172 14.0504 12.5121C13.8712 12.5157 13.6933 12.5444 13.5219 12.5974C13.3093 12.2405 12.9753 11.9735 12.582 11.8459C12.3546 11.7624 12.1138 11.7224 11.8719 11.7281C11.505 11.7299 11.1463 11.8385 10.8392 12.0409C10.6804 11.8659 10.4873 11.7261 10.272 11.6303C10.0567 11.5345 9.82398 11.4848 9.5886 11.4843C9.17064 11.49 8.76906 11.6488 8.45904 11.9312C7.983 11.594 6.37337 10.6475 2.34727 9.76186C2.1617 9.72123 1.76635 9.61155 1.43555 9.51811C1.76635 7.77535 2.87171 6.09352 4.59834 4.67981Z" fill="white"/>
<path d="M32.7367 11.4072C32.7367 11.5413 32.7085 11.6753 32.6924 11.8134C32.3374 14.1168 30.7802 16.2821 28.2185 17.9476C25.2493 19.9057 21.2918 20.9944 17.0761 21.031H16.8663C8.26547 21.031 1.26215 16.5624 1.21777 11.0172C1.21777 10.8425 1.21777 10.6516 1.24198 10.4363L2.11739 10.6353C6.08702 11.4884 7.57563 12.3903 7.94274 12.6665C7.87797 12.8546 7.84523 13.0524 7.84592 13.2515C7.85016 13.7027 8.03084 14.1339 8.34878 14.4518C8.66671 14.7697 9.09627 14.9485 9.5443 14.9496C9.6209 14.9536 9.69765 14.9536 9.77425 14.9496C9.85605 15.2644 10.0137 15.5541 10.2333 15.7929C10.4528 16.0317 10.7275 16.2123 11.0329 16.3186C11.2217 16.3938 11.4229 16.4324 11.6259 16.4324C11.7316 16.4312 11.8369 16.4203 11.9406 16.3999C12.1515 16.8226 12.5176 17.1461 12.9612 17.3017C13.1734 17.3854 13.399 17.4295 13.6269 17.4317C13.7733 17.4329 13.9189 17.411 14.0585 17.3667C14.2196 17.7076 14.4734 17.9954 14.7905 18.1967C15.1076 18.3981 15.4749 18.5047 15.8497 18.5042C16.3592 18.4984 16.8471 18.2963 17.2133 17.9395C17.6999 18.2067 18.2409 18.3582 18.7947 18.3823C18.8794 18.3823 18.9641 18.3823 19.0488 18.3823C19.2696 18.3727 19.4857 18.3155 19.6827 18.2146C19.8796 18.1137 20.0528 17.9714 20.1905 17.7973L20.2268 17.7486C20.3773 17.7856 20.5317 17.8047 20.6867 17.8055C21.0839 17.7923 21.4661 17.6498 21.7759 17.3992C22.0768 17.1881 22.2974 16.88 22.4012 16.5258C22.4859 16.5258 22.5787 16.5258 22.6634 16.5258C23.0609 16.5167 23.4469 16.3895 23.7728 16.1602C24.0087 16.0234 24.2063 15.8287 24.3474 15.5943C24.4885 15.36 24.5684 15.0934 24.5797 14.8196C24.6628 14.8277 24.7466 14.8277 24.8298 14.8196C25.2027 14.8124 25.5656 14.6967 25.8746 14.4865C26.083 14.3563 26.2573 14.1777 26.383 13.9656C26.5087 13.7536 26.5819 13.5143 26.5967 13.2678C26.6184 12.9653 26.5555 12.6627 26.4152 12.3944C28.46 11.5495 30.5685 10.8703 32.7206 10.3632C32.7206 10.5378 32.7529 10.7166 32.7529 10.8953C32.7529 11.0741 32.7488 11.2366 32.7367 11.4072Z" fill="#FFD100"/>
</svg>
