<svg width="25" height="25" viewBox="0 0 25 25" fill="none" xmlns="http://www.w3.org/2000/svg">
<path d="M10.106 14.326L9.326 15.406C9.92061 16.0409 10.7691 16.5065 11.9 16.6394V17.9824H13.1V16.6541C14.8896 16.4838 15.674 15.4253 15.674 14.206C15.674 12.466 14.102 12.058 12.782 11.722L12.7703 11.719C11.8273 11.4803 11.018 11.2754 11.018 10.654C11.018 10.054 11.546 9.65799 12.374 9.65799C13.214 9.65799 14.066 9.94599 14.69 10.57L15.494 9.52599C14.8744 8.92642 14.0718 8.55153 13.1 8.44289V7.11991H11.9V8.45132C10.4838 8.65458 9.578 9.58556 9.578 10.75C9.578 12.442 11.114 12.826 12.422 13.15L12.4415 13.1551C13.4054 13.4049 14.246 13.6228 14.246 14.338C14.246 14.866 13.79 15.43 12.638 15.43C11.522 15.43 10.658 14.914 10.106 14.326Z" fill="white"/>
<path fill-rule="evenodd" clip-rule="evenodd" d="M12.5 21.544C17.4706 21.544 21.5 17.5146 21.5 12.544C21.5 7.57343 17.4706 3.54399 12.5 3.54399C7.52944 3.54399 3.5 7.57343 3.5 12.544C3.5 17.5146 7.52944 21.544 12.5 21.544ZM12.5 20.344C8.19218 20.344 4.7 16.8518 4.7 12.544C4.7 8.23617 8.19218 4.74399 12.5 4.74399C16.8078 4.74399 20.3 8.23617 20.3 12.544C20.3 16.8518 16.8078 20.344 12.5 20.344Z" fill="white"/>
</svg>
