<svg width="25" height="24" viewBox="0 0 25 24" fill="none" xmlns="http://www.w3.org/2000/svg">
<path fill-rule="evenodd" clip-rule="evenodd" d="M23.5663 5.65929C23.2903 4.615 22.4743 3.78929 21.4423 3.51C19.5703 3 12.0703 3 12.0703 3C12.0703 3 4.57031 3 2.69831 3.51C1.66631 3.78929 0.850313 4.615 0.574313 5.65929C0.0703125 7.55357 0.0703125 11.5 0.0703125 11.5C0.0703125 11.5 0.0703125 15.4464 0.574313 17.3407C0.850313 18.385 1.66631 19.2107 2.69831 19.49C4.57031 20 12.0703 20 12.0703 20C12.0703 20 19.5703 20 21.4423 19.49C22.4743 19.2107 23.2903 18.385 23.5663 17.3407C24.0703 15.4464 24.0703 11.5 24.0703 11.5C24.0703 11.5 24.0703 7.55357 23.5663 5.65929ZM9.67041 15.1429V7.85715L15.9104 11.5L9.67041 15.1429Z" fill="#202124"/>
</svg>
